<svg width="21" height="21" viewBox="0 0 21 21" fill="none" xmlns="http://www.w3.org/2000/svg">
<g clip-path="url(#clip0_10_819)">
<path d="M10.4998 0.499985C4.97673 0.499985 0.499756 4.97695 0.499756 10.5C0.499756 16.023 4.97673 20.5 10.4998 20.5C16.0228 20.5 20.4998 16.023 20.4998 10.5C20.4998 4.97764 16.0228 0.500667 10.4998 0.499985ZM15.0859 14.9224C14.9064 15.2171 14.5223 15.3093 14.2289 15.1298C11.8809 13.6948 8.92487 13.3707 5.44414 14.1656C5.10842 14.2427 4.77407 14.0326 4.69764 13.6968C4.62053 13.3611 4.83002 13.0268 5.16642 12.9503C8.97536 12.0803 12.2432 12.4549 14.8791 14.0653C15.1726 14.2461 15.266 14.629 15.0859 14.9224ZM16.3094 12.2004C16.0835 12.5675 15.6031 12.6822 15.2367 12.457C12.5496 10.805 8.45131 10.3267 5.27219 11.2915C4.86004 11.4164 4.4247 11.1837 4.29914 10.7722C4.17495 10.3601 4.40764 9.92544 4.8191 9.79988C8.45063 8.69787 12.9658 9.23148 16.0521 11.1284C16.4192 11.3543 16.5352 11.834 16.3094 12.2004ZM16.4145 9.36454C13.191 7.45051 7.87403 7.27446 4.79658 8.20793C4.30255 8.35805 3.77986 8.07897 3.63043 7.58494C3.48099 7.09091 3.75939 6.56822 4.25411 6.4181C7.78669 5.34611 13.6584 5.55287 17.3691 7.75553C17.8133 8.0196 17.9593 8.59347 17.6959 9.037C17.4332 9.4819 16.858 9.62861 16.4145 9.36454Z" fill="#2EBD59"/>
</g>
<defs>
<clipPath id="clip0_10_819">
<rect width="20" height="20" fill="white" transform="translate(0.499756 0.499985)"/>
</clipPath>
</defs>
</svg>
